{"title":"SURFING - ASP JEFFREYS BAY 2008","uid":5269946,"size":415501886,"categoryP":"video","categoryS":"movies","magnet":"?xt=urn:btih:6d5d4c36929e6078070846fbb1daf7e8ba880ae3&amp;dn=SURFING+-+ASP+JEFFREYS+BAY+2008&amp;tr=udp%3A%2F%2Ftracker.openbittorrent.com%3A80&amp;tr=udp%3A%2F%2Fopen.demonii.com%3A1337&amp;tr=udp%3A%2F%2Ftracker.coppersurfer.tk%3A6969&amp;tr=udp%3A%2F%2Fexodus.desync.com%3A6969","seeders":0,"leechers":2,"uploader":null,"files":1,"time":1263017916,"description":"JEFFREYS BAY 2008 - TWI.flv\nFormat                           : Flash Video\nFile size                        : 396 MiB\nDuration                         : 42mn 34s\nOverall bit rate                 : 1 301 Kbps\n\nVideo\nFormat                           : H.263\nDuration                         : 42mn 34s\nBit rate                         : 781 Kbps\nWidth                            : 480 pixels\nHeight                           : 320 pixels\nDisplay aspect ratio             : 1.500\nFrame rate                       : 25.000 fps\nBits/(Pixel*Frame)               : 0.203\nStream size                      : 238 MiB (60%)\n\nAudio\nFormat                           : MPEG Audio\nFormat version                   : Version 1\nFormat profile                   : Layer 3\nMode                             : Joint stereo / MS Stereo\nDuration                         : 42mn 34s\nBit rate mode                    : Variable\nBit rate                         : 88.9 Kbps\nChannel(s)                       : 2 channels\nSampling rate                    : 44.1 KHz\nResolution                       : 16 bits\nStream size                      : 27.1 MiB (7%)\n\n","torrent":{"xt":"urn:btih:6d5d4c36929e6078070846fbb1daf7e8ba880ae3","amp;dn":"SURFING+-+ASP+JEFFREYS+BAY+2008","amp;tr":["udp%3A%2F%2Ftracker.openbittorrent.com%3A80","udp%3A%2F%2Fopen.demonii.com%3A1337","udp%3A%2F%2Ftracker.coppersurfer.tk%3A6969","udp%3A%2F%2Fexodus.desync.com%3A6969"],"infoHash":"6d5d4c36929e6078070846fbb1daf7e8ba880ae3","infoHashBuffer":{"type":"Buffer","data":[109,93,76,54,146,158,96,120,7,8,70,251,177,218,247,232,186,136,10,227]},"announce":[],"urlList":[]}}